<svg width="279" height="291" viewBox="0 0 279 291" fill="none" xmlns="http://www.w3.org/2000/svg">
<path d="M124.914 290.791C126.894 251.081 117.384 212.131 94.7336 179.471C87.4036 168.911 78.5636 159.761 69.9336 150.291L91.4136 129.811C111.084 150.041 129.314 173.041 138.924 199.791L158.504 164.881C163.304 159.001 167.484 152.561 172.394 146.771C175.004 143.711 184.284 132.721 186.914 131.281C187.794 130.801 188.844 130.381 189.734 131.001L209.894 150.281C171.264 186.451 150.884 237.591 154.914 290.781H124.914V290.791Z" fill="#4D6658"/>
<path d="M212.694 48.0705C221.794 47.0905 222.324 50.3605 224.424 58.7805C230.674 83.7805 212.134 106.71 186.594 106.64C169.554 85.0005 185.934 50.9505 212.694 48.0705Z" fill="#4D6658"/>
<path d="M138.594 0C166.534 13.53 166.404 53.19 139.234 67.64C111.624 53.87 111.694 14.67 138.594 0Z" fill="#4D6658"/>
<path d="M135.674 97.0489C173.594 91.6489 174.964 151.359 135.524 146.669C108.494 143.459 107.284 101.089 135.674 97.0489Z" fill="#4D6658"/>
<path d="M0.0735003 106.94C22.1435 95.0303 49.9235 104.56 57.0635 129.14C60.4035 140.65 60.5635 142.9 48.6935 146.07C22.6335 153.04 -1.5065 133.76 0.0735003 106.94Z" fill="#4D6658"/>
<path d="M278.744 105.951C280.794 137.221 246.474 156.681 220.084 140.631C219.014 109.651 251.794 90.7013 278.744 105.951Z" fill="#4D6658"/>
<path d="M58.0742 48.9489C88.7142 45.6289 109.864 82.2989 91.9741 107.269C61.1541 107.579 42.8742 75.7089 58.0742 48.9489Z" fill="#4D6658"/>
</svg>
