<svg width="416" height="499" viewBox="0 0 416 499" fill="none" xmlns="http://www.w3.org/2000/svg">
<path d="M228.86 227.141C253.08 201.581 288.79 175.821 319.57 160.361C321.02 159.631 328.09 154.371 328.86 155.141C327.51 160.851 322.77 163.191 319.35 167.121C299.47 190.011 286.11 209.141 269.86 234.131C225.01 303.131 188.37 386.391 214.31 471.181C217.12 480.361 222.42 488.961 224.86 498.131H125.86C124.05 494.621 125.85 491.981 125.91 488.671C127.75 389.731 160.69 299.071 228.86 227.131V227.141Z" fill="#5A3024"/>
<path d="M86.6995 162.142C91.1595 163.762 93.3795 164.572 97.5195 166.482C100.82 168.002 105.65 170.072 111.85 172.142C112.34 172.842 112.6 174.842 114.18 175.802L121.85 178.142C122.61 179.622 142.22 193.392 145.86 196.632C161.1 210.182 175.05 227.252 186.44 244.122L157.83 292.132C156.48 292.432 156.73 291.102 156.35 290.142C145.52 262.832 140.5 240.102 124.65 213.832C121.37 208.402 116.51 199.502 107.84 190.142C105.37 187.472 103.22 185.422 101.84 184.142C97.0695 178.832 93.1395 174.902 90.3695 172.252C88.6495 170.602 87.3295 169.402 85.8395 168.142C82.7095 165.492 79.8995 163.512 77.8395 162.142C77.7195 161.682 77.6595 161.092 77.9695 160.682C78.8495 159.512 82.1195 160.482 86.6895 162.142H86.6995Z" fill="#5A3024"/>
<path d="M228.859 227.141C230.879 215.341 234.279 203.461 238.409 192.191C251.729 155.851 275.899 122.831 311.879 106.661C342.869 92.7314 381.399 89.5114 414.809 94.2014C411.479 123.391 398.879 154.591 381.679 178.461C355.169 215.261 314.499 232.021 269.859 234.141C286.109 209.151 299.469 190.021 319.349 167.131C322.759 163.201 327.509 160.861 328.859 155.151C328.089 154.381 321.019 159.641 319.569 160.371C288.799 175.821 253.079 201.591 228.859 227.151V227.141Z" fill="#4D6658"/>
<path d="M197.48 71.5218C237.01 107.362 248.07 150.322 225.75 199.522C222.24 207.252 216.7 214.322 213.85 222.132C213.21 222.732 207.65 218.852 206.63 218.092C197.34 211.152 179.65 191.212 173.96 181.302C155.24 148.672 156.77 118.202 171.56 84.3418C173.18 80.6418 181.9 62.0618 185.35 62.0918C186.35 62.0918 195.89 70.0818 197.48 71.5218Z" fill="#4D6658"/>
<path d="M293.84 0.142423C295.82 6.36242 299.61 12.7924 301.55 18.9524C315.23 62.3324 301.68 98.6824 265.1 124.112C262.18 126.142 255.76 130.952 252.55 130.182C249.15 129.372 240.3 96.7324 239.87 91.6224C237.39 62.7424 244.41 42.4024 263.83 21.6124C266.87 18.3624 291.2 -1.81758 293.84 0.132421V0.142423Z" fill="#4D6658"/>
<path d="M415.37 290.183C414.68 288.613 406.14 278.133 404.37 276.133C388.92 258.683 365.58 243.273 341.86 242.143C317.72 240.993 294.94 246.693 274.19 258.973C270.85 260.943 267.74 261.473 270.02 265.473C273.69 271.923 285.54 284.103 291.39 289.113C321.47 314.903 351.54 319.153 388.86 306.143C393.21 304.623 414.88 295.953 415.77 292.453C416.03 291.423 415.74 291.023 415.37 290.183Z" fill="#4D6658"/>
<path d="M104.848 215.161C105.238 216.611 104.458 216.821 103.878 217.661C99.4681 224.091 86.1881 235.081 79.3181 239.101C53.8381 254.021 22.9781 247.491 1.07812 229.651C22.6681 202.831 50.7781 189.771 84.5181 203.971C91.6781 206.981 97.7681 212.021 104.838 215.161H104.848Z" fill="#4D6658"/>
<path d="M117.17 62.3306C104.86 54.0406 104.4 56.4706 100.58 70.3606C92.4503 99.9306 98.1803 119.901 119.86 140.141C123.07 143.141 138.58 158.021 142.77 155.051C144.88 153.551 149.6 132.051 149.86 128.141C151.84 98.5706 141.45 78.6806 117.17 62.3306Z" fill="#4D6658"/>
<path d="M117.859 167.141C103.779 140.941 90.3994 129.101 90.3994 129.101C88.5794 127.491 86.8094 125.931 84.1894 124.091C81.3294 122.091 74.3694 117.381 60.8694 114.131C49.1594 111.321 35.3694 110.351 23.3194 111.081C18.9694 111.351 4.99935 112.921 1.57935 114.341C0.929355 114.611 0.479358 114.791 0.239358 115.161C0.239358 115.161 -0.0806429 115.661 0.0193571 116.431C2.79936 138.251 21.8694 159.131 21.8694 159.131C27.7394 165.561 33.6594 172.261 43.8694 178.131C63.2694 189.271 75.8094 190.131 97.8694 190.131H107.869C107.459 188.621 106.679 186.431 105.099 184.181C103.789 182.311 102.449 181.171 101.559 180.421C94.4493 174.401 90.5594 172.161 85.8594 168.141C85.2394 167.611 83.6194 166.201 81.2794 164.491C79.8094 163.421 78.5894 162.611 77.8594 162.141C77.6594 161.351 77.7994 160.921 77.9894 160.681C78.1894 160.411 79.0094 159.621 86.7094 162.141C89.6894 163.111 91.8193 163.971 92.5893 164.291C92.5893 164.291 94.9794 165.261 97.5294 166.481C103.989 169.561 113.129 175.151 114.189 175.801L121.859 178.141C121.629 176.991 121.209 175.171 120.459 173.021C119.529 170.341 118.509 168.361 117.859 167.141Z" fill="#4D6658"/>
</svg>
